<?xml version="1.0" encoding="utf-8"?>
<!-- Generator: Adobe Illustrator 21.1.0, SVG Export Plug-In . SVG Version: 6.00 Build 0)  -->
<svg version="1.1" id="Capa_1" xmlns="http://www.w3.org/2000/svg" xmlns:xlink="http://www.w3.org/1999/xlink" x="0px" y="0px"
	 viewBox="0 0 1024 1024" style="enable-background:new 0 0 1024 1024;" xml:space="preserve">
<style type="text/css">
	.st0{opacity:0.5;}
	.st1{fill:#FFFFFF;}
</style>
<g>
	<g class="st0">
		
			<text transform="matrix(1 0 0 1 -761.7217 560.0898)" style="font-family:'BebasNeueBold'; font-size:184.3878px; letter-spacing:18;">MEATS</text>
	</g>
	<g>
		
			<text transform="matrix(1 0 0 1 -766.7217 555.0898)" style="font-family:'BebasNeueBold'; font-size:184.3878px; letter-spacing:18;">MEATS</text>
	</g>
</g>
<g>
	<path d="M-532,726l-383-106.3V404.3L-532,298l383,106.3v215.4L-532,726z M-909,615.2l377,104.6l377-104.6V408.8l-377-104.6
		l-377,104.6V615.2z"/>
</g>
<g>
	<path d="M-532,713.7l-0.3-0.1l-370.5-100.5V410.9l0.7-0.2L-532,310.3l0.3,0.1l370.5,100.5v202.2l-0.7,0.2L-532,713.7z
		 M-900.8,611.6L-532,711.7l368.8-100.1V412.4L-532,312.3l-368.8,100.1V611.6z"/>
</g>
<g>
	<rect x="-762.3" y="584.1" width="446.8" height="1"/>
</g>
<path d="M-474.1,361.7c-0.7-0.8-1.7-1.4-2.8-1.7c-4.4-1.1-10.1-2.2-19.6-2.3c-4.8-0.1-20.8,1.8-28.1,1.7c-7.3-0.1-40.8-1.3-55.6-4
	c-0.3-0.1-0.6-0.1-0.8-0.1c-2.1,0-3.9,1.5-4.2,3.5c-1.2,7.8-2.3,18.1-2.4,29.6c0,0.4,0.3,0.7,0.7,0.8c12,1.3,25.9,2.1,40.8,2.3
	c7.1,0.1,14.6,0,21.1-0.2c0.4,0,0.7-0.3,0.8-0.7c-0.5-6.9-0.5-13.1-0.4-18.2c0.1-2.5,2.1-4.6,4.6-4.5c2.2,0,8.1,0.9,9.4,1.2
	c3.6,0.9,7.6,1.6,11.8,1.6c4.4,0,8.5-0.3,12.1-1.4c0.6-0.2,1.3-0.3,1.9-0.3c1.7,0,3.2,0.3,4.4,1.4c0.3,0.3,0.7,0.4,1.1,0.4
	c0.3,0,0.6-0.1,0.9-0.2c2-1.2,3.7-2.9,4.9-4.9c0.3-0.5,0.5-1.1,0.5-1.7C-473.2,363.1-473.5,362.3-474.1,361.7z M-578.8,359.8
	c1.3,0,2.4,1.1,2.3,2.4s-1.1,2.4-2.4,2.3c-1.3,0-2.4-1.1-2.3-2.4S-580.1,359.8-578.8,359.8z M-526.4,389.9
	c-6.2,0.2-13.2,0.3-19.8,0.2c-14.5-0.2-27.7-0.9-39.5-2.2c-0.1,0-0.2-0.1-0.3-0.1c6.8,0.4,47.1,2.6,59.8-0.2l0.1,1.9
	C-526,389.7-526.2,389.9-526.4,389.9z M-519.2,365.2c-0.7,0.3-1.5,0-1.8-0.7c-0.3-0.7,0-1.5,0.7-1.8c0.7-0.3,1.5,0,1.8,0.7
	C-518.3,364.1-518.6,364.9-519.2,365.2z M-499.6,365c-0.7,0.3-1.5,0-1.8-0.7c-0.3-0.7,0-1.5,0.7-1.8c0.7-0.3,1.5,0,1.8,0.7
	C-498.6,363.9-498.9,364.7-499.6,365z M-479.3,365.1c-0.7,0.3-1.5,0-1.8-0.7c-0.3-0.7,0-1.5,0.7-1.8c0.7-0.3,1.5,0,1.8,0.7
	C-478.4,364-478.7,364.8-479.3,365.1z"/>
<text transform="matrix(1 0 0 1 -723.3711 632.1553)" style="font-family:'ProximaNova-Regular'; font-size:29.0354px; letter-spacing:9;">carnes selectas</text>
<g>
	<g>
		<path class="st1" d="M327.6,517.7l13.8-91.6h28.2v129.1h-19.2v-92.6l-14,92.6h-19.2l-15.1-91.3v91.3h-17.7V426h28.2L327.6,517.7z"
			/>
		<path class="st1" d="M423.1,480.4H451v18.4h-27.8v37.8h35v18.4h-55.3V426h55.3v18.4h-35V480.4z"/>
		<path class="st1" d="M554.8,555.1h-20.5l-3.5-23.4h-24.9l-3.5,23.4h-18.6L504.4,426h29.7L554.8,555.1z M508.5,514.2H528l-9.8-65.3
			L508.5,514.2z"/>
		<path class="st1" d="M576.7,426h62.7v18.4h-21.2v110.6h-20.3V444.5h-21.2V426z"/>
		<path class="st1" d="M664.1,457c0-10.4,2.5-18.5,7.5-24.1c5-5.6,12.4-8.4,22.4-8.4s17.4,2.8,22.4,8.4c5,5.6,7.5,13.6,7.5,24.1v4.1
			h-19.2v-5.3c0-4.7-0.9-8-2.7-9.9c-1.8-1.9-4.3-2.9-7.5-2.9c-3.2,0-5.7,1-7.5,2.9c-1.8,1.9-2.7,5.2-2.7,9.9c0,4.4,1,8.3,3,11.7
			c2,3.4,4.4,6.6,7.4,9.6c3,3,6.1,6,9.5,9c3.4,3,6.5,6.3,9.5,9.9c3,3.6,5.4,7.6,7.4,12.2c2,4.5,3,9.9,3,16c0,10.5-2.6,18.5-7.7,24.1
			c-5.1,5.6-12.6,8.4-22.6,8.4s-17.5-2.8-22.6-8.4c-5.1-5.6-7.7-13.6-7.7-24.1v-7.9h19.2v9.2c0,4.7,1,7.9,2.9,9.8
			c1.9,1.8,4.5,2.8,7.7,2.8c3.2,0,5.7-0.9,7.7-2.8c1.9-1.8,2.9-5.1,2.9-9.8c0-4.4-1-8.3-3-11.7c-2-3.4-4.4-6.6-7.4-9.6
			c-3-3-6.1-6-9.5-9c-3.4-3-6.5-6.3-9.5-9.9c-3-3.6-5.4-7.6-7.4-12.2C665.1,468.5,664.1,463.1,664.1,457z"/>
	</g>
</g>
<g>
	<path class="st1" d="M512,726L129,619.7V404.3L512,298l383,106.3v215.4L512,726z M135,615.2l377,104.6l377-104.6V408.8L512,304.2
		L135,408.8V615.2z"/>
</g>
<g>
	<path class="st1" d="M512,713.7l-0.3-0.1L141.2,613.1V410.9l0.7-0.2L512,310.3l0.3,0.1l370.5,100.5v202.2l-0.7,0.2L512,713.7z
		 M143.2,611.6L512,711.7l368.8-100.1V412.4L512,312.3L143.2,412.4V611.6z"/>
</g>
<g>
	<rect x="281.7" y="584.1" class="st1" width="446.8" height="1"/>
</g>
<path class="st1" d="M569.9,361.7c-0.7-0.8-1.7-1.4-2.8-1.7c-4.4-1.1-10.1-2.2-19.6-2.3c-4.8-0.1-20.8,1.8-28.1,1.7
	c-7.3-0.1-40.8-1.3-55.6-4c-0.3-0.1-0.6-0.1-0.8-0.1c-2.1,0-3.9,1.5-4.2,3.5c-1.2,7.8-2.3,18.1-2.4,29.6c0,0.4,0.3,0.7,0.7,0.8
	c12,1.3,25.9,2.1,40.8,2.3c7.1,0.1,14.6,0,21.1-0.2c0.4,0,0.7-0.3,0.8-0.7c-0.5-6.9-0.5-13.1-0.4-18.2c0.1-2.5,2.1-4.6,4.6-4.5
	c2.2,0,8.1,0.9,9.4,1.2c3.6,0.9,7.6,1.6,11.8,1.6c4.4,0,8.5-0.3,12.1-1.4c0.6-0.2,1.3-0.3,1.9-0.3c1.7,0,3.2,0.3,4.4,1.4
	c0.3,0.3,0.7,0.4,1.1,0.4c0.3,0,0.6-0.1,0.9-0.2c2-1.2,3.7-2.9,4.9-4.9c0.3-0.5,0.5-1.1,0.5-1.7
	C570.8,363.1,570.5,362.3,569.9,361.7z M465.2,359.8c1.3,0,2.4,1.1,2.3,2.4s-1.1,2.4-2.4,2.3c-1.3,0-2.4-1.1-2.3-2.4
	S463.9,359.8,465.2,359.8z M517.6,389.9c-6.2,0.2-13.2,0.3-19.8,0.2c-14.5-0.2-27.7-0.9-39.5-2.2c-0.1,0-0.2-0.1-0.3-0.1
	c6.8,0.4,47.1,2.6,59.8-0.2l0.1,1.9C518,389.7,517.8,389.9,517.6,389.9z M524.8,365.2c-0.7,0.3-1.5,0-1.8-0.7
	c-0.3-0.7,0-1.5,0.7-1.8c0.7-0.3,1.5,0,1.8,0.7C525.7,364.1,525.4,364.9,524.8,365.2z M544.4,365c-0.7,0.3-1.5,0-1.8-0.7
	c-0.3-0.7,0-1.5,0.7-1.8c0.7-0.3,1.5,0,1.8,0.7C545.4,363.9,545.1,364.7,544.4,365z M564.7,365.1c-0.7,0.3-1.5,0-1.8-0.7
	c-0.3-0.7,0-1.5,0.7-1.8c0.7-0.3,1.5,0,1.8,0.7C565.6,364,565.3,364.8,564.7,365.1z"/>
<g>
	<path class="st1" d="M307.1,622.4c0-6.3,4.7-10.6,10.7-10.6c4.1,0,6.7,2.1,8.2,4.6L323,618c-1-1.7-2.9-3-5.1-3c-4,0-7,3.1-7,7.4
		c0,4.3,3,7.4,7,7.4c2.2,0,4.2-1.3,5.1-3l3.1,1.6c-1.6,2.4-4.1,4.6-8.2,4.6C311.8,633,307.1,628.7,307.1,622.4z"/>
	<path class="st1" d="M352.6,632.6l-1.5-3.9h-9.4l-1.5,3.9h-4.1l8-20.4h4.5l8,20.4H352.6z M346.5,615.8l-3.7,9.7h7.3L346.5,615.8z"
		/>
	<path class="st1" d="M380.2,632.6l-4.5-7.6h-3.6v7.6h-3.6v-20.4h9c4,0,6.7,2.6,6.7,6.4c0,3.6-2.4,5.6-4.8,6l5,8H380.2z
		 M380.5,618.6c0-2-1.5-3.2-3.5-3.2h-4.9v6.5h4.9C379,621.8,380.5,620.5,380.5,618.6z"/>
	<path class="st1" d="M411.5,632.6L400.9,618v14.6h-3.6v-20.4h3.7l10.4,14.2v-14.2h3.6v20.4H411.5z"/>
	<path class="st1" d="M428.9,632.6v-20.4h14v3.2h-10.4v5.3h10.2v3.2h-10.2v5.7h10.4v3.2H428.9z"/>
	<path class="st1" d="M454.8,629.7l2-2.8c1.4,1.5,3.6,2.8,6.5,2.8c2.9,0,4.1-1.4,4.1-2.8c0-4.3-11.9-1.6-11.9-9.2c0-3.4,3-6,7.4-6
		c3.2,0,5.8,1,7.7,2.8l-2.1,2.7c-1.6-1.6-3.8-2.3-5.9-2.3c-2.1,0-3.5,1-3.5,2.5c0,3.8,11.9,1.4,11.9,9.1c0,3.4-2.4,6.3-7.9,6.3
		C459.3,633,456.6,631.6,454.8,629.7z"/>
	<path class="st1" d="M500,629.7l2-2.8c1.4,1.5,3.6,2.8,6.5,2.8c2.9,0,4.1-1.4,4.1-2.8c0-4.3-11.9-1.6-11.9-9.2c0-3.4,3-6,7.4-6
		c3.2,0,5.8,1,7.7,2.8l-2.1,2.7c-1.6-1.6-3.8-2.3-5.9-2.3c-2.1,0-3.5,1-3.5,2.5c0,3.8,11.9,1.4,11.9,9.1c0,3.4-2.4,6.3-7.9,6.3
		C504.5,633,501.8,631.6,500,629.7z"/>
	<path class="st1" d="M529,632.6v-20.4h14v3.2h-10.4v5.3h10.2v3.2h-10.2v5.7H543v3.2H529z"/>
	<path class="st1" d="M556.3,632.6v-20.4h3.6v17.3h9v3.2H556.3z"/>
	<path class="st1" d="M581.7,632.6v-20.4h14v3.2h-10.4v5.3h10.2v3.2h-10.2v5.7h10.4v3.2H581.7z"/>
	<path class="st1" d="M608,622.4c0-6.3,4.7-10.6,10.7-10.6c4.1,0,6.7,2.1,8.2,4.6l-3.1,1.6c-1-1.7-2.9-3-5.1-3c-4,0-7,3.1-7,7.4
		c0,4.3,3,7.4,7,7.4c2.2,0,4.2-1.3,5.1-3l3.1,1.6c-1.6,2.4-4.1,4.6-8.2,4.6C612.7,633,608,628.7,608,622.4z"/>
	<path class="st1" d="M644.2,632.6v-17.3H638v-3.2h16v3.2h-6.2v17.3H644.2z"/>
	<path class="st1" d="M678.9,632.6l-1.5-3.9H668l-1.5,3.9h-4.1l8-20.4h4.5l8,20.4H678.9z M672.7,615.8l-3.7,9.7h7.3L672.7,615.8z"/>
	<path class="st1" d="M693.1,629.7l2-2.8c1.4,1.5,3.6,2.8,6.5,2.8c2.9,0,4.1-1.4,4.1-2.8c0-4.3-11.9-1.6-11.9-9.2c0-3.4,3-6,7.4-6
		c3.2,0,5.8,1,7.7,2.8l-2.1,2.7c-1.6-1.6-3.8-2.3-5.9-2.3c-2.1,0-3.5,1-3.5,2.5c0,3.8,11.9,1.4,11.9,9.1c0,3.4-2.4,6.3-7.9,6.3
		C697.6,633,694.9,631.6,693.1,629.7z"/>
</g>
</svg>
