<?xml version="1.0" encoding="utf-8"?>
<!-- Generator: Adobe Illustrator 21.1.0, SVG Export Plug-In . SVG Version: 6.00 Build 0)  -->
<svg version="1.1" id="Capa_1" xmlns="http://www.w3.org/2000/svg" xmlns:xlink="http://www.w3.org/1999/xlink" x="0px" y="0px"
	 viewBox="0 0 138 101" style="enable-background:new 0 0 138 101;" xml:space="preserve">
<style type="text/css">
	.st0{fill:#FFFFFF;}
</style>
<g>
	<g>
		<defs>
			<rect id="SVGID_1_" x="-586" y="168" width="1366" height="617"/>
		</defs>
		<clipPath id="SVGID_2_">
			<use xlink:href="#SVGID_1_"  style="overflow:visible;"/>
		</clipPath>
	</g>
</g>
<g transform="translate(0,-952.36223)">
	<path class="st0" d="M35,977.2l-18.4,10.6l-2.6-1.5l-4.8,6l2.3,3.4l-2.3,13.2l4.5,9.6l3,4.9l-1,6.3l5.5,14.2l1.5,2.4h7.2l0.5-4.3
		l-3.3-7.1l0.9-1.8l2,1.2l0.9,2.7l1,3.3l0.9,1.8l2.2,3.7l3.9,0.5h5.4l-0.3-5.8l-4.8-7.8l1.5-3l15.4,3.2l22.8-1.7l1,8l-0.5,1.8
		l0.5,4.7l13.2,0.3l-0.8-5.1l-1.2-1.9l2-6.2l2.7-3.7l13.3-6.8l26.4-5.9l0.7-14.1l-6.7,0.4l-4.8-3.6l10.3-10.9l-14,0.8l-62.5-12h-0.3
		L35,977.2z M81.5,983.7v16.1v11.2l-31.4-0.1L50,995.7l-11.7-16h19L81.5,983.7z M47.8,996l-0.1,17.2l-4.8,14.3H27l-2.4,4.3l-6.1-3.7
		l0.3-5l-7.4-14.2l2.9-16.6l21.3-12.6L47.8,996z M87.6,985.5l4.3,14.9l8.7,5.8v2.9l-16.7,2.2l-0.3-26.9L87.6,985.5z M100.5,988.4
		l0.1,15.3l-6.2-3.8l-4.5-14L100.5,988.4z M120.3,992.2l7.3-0.5l-7.3,7.6l7.9,6l4.8-0.6l-0.4,9.1l-18.8,4.7l-4,0.7l-7-9.8l-0.2-20.8
		L120.3,992.2z M107.1,1020.1l-14,7.4l-3.6,5.1l-7.1-0.4l1.5-18.9l17.2-2.3L107.1,1020.1z M81.5,1013.4l-1.7,15.5l-23.9,1.7l-10-2.8
		l4.2-14.3c3.2,0,6.7-0.1,10.3-0.1C70.9,1013.3,81.5,1013.4,81.5,1013.4z M24.8,1034.8l2.5,6.2l-5.2-1.1l-3.2-8L24.8,1034.8z
		 M88.9,1033.8l-1.6,6.2h-2.2h-2.6l0.1-6.7L88.9,1033.8z M89.5,1043.7L89.5,1043.7l-7.3-0.1l-0.1-2.5h5.6L89.5,1043.7z M24.4,1041.7
		l3.7,0.6l-0.4,2h-3.8l-1.6-3L24.4,1041.7z"/>
	<path class="st0" d="M10.7,984.4l-2.1-2.7l2.1-1.4l2.5,1.2l-6.7,11.8L17.4,981l-6.7-5.2L4,981l3.4,6.7L10.7,984.4L10.7,984.4z"/>
</g>
</svg>
